<svg width="100" height="100" viewBox="0 0 100 100" fill="none" xmlns="http://www.w3.org/2000/svg">
<rect width="100" height="100" fill="#003E3E"/>
<path fill-rule="evenodd" clip-rule="evenodd" d="M47.4161 52.1358L33.1068 25.2211C33.0246 25.0665 32.9736 24.8972 32.9568 24.7229C32.94 24.5486 32.9578 24.3727 33.0089 24.2053C33.1123 23.8671 33.3458 23.5838 33.6581 23.4178C33.9703 23.2518 34.3358 23.2166 34.6739 23.32C34.8414 23.3712 34.9971 23.4549 35.1323 23.5662C35.2674 23.6776 35.3792 23.8145 35.4614 23.9691L49.7721 50.8838L51.8014 49.8038C52.4199 49.475 53.0972 49.2712 53.7944 49.2042C54.4917 49.1371 55.1953 49.2081 55.8652 49.413C56.535 49.6179 57.1579 49.9527 57.6983 50.3984C58.2388 50.8441 58.6861 51.3919 59.0148 52.0105L59.8788 53.6345L69.0374 67.0411L50.0388 77.1425L44.0454 62.0518L43.1828 60.4278C42.8539 59.8094 42.6501 59.1322 42.5829 58.435C42.5157 57.7378 42.5866 57.0342 42.7914 56.3644C42.9962 55.6945 43.3309 55.0716 43.7764 54.5311C44.222 53.9907 44.7696 53.5433 45.3881 53.2145L47.4161 52.1358ZM46.6388 55.5691L53.0521 52.1598C53.3613 51.9954 53.6999 51.8934 54.0485 51.8599C54.3971 51.8263 54.7489 51.8617 55.0838 51.9641C55.4187 52.0665 55.7302 52.2339 56.0004 52.4566C56.2707 52.6794 56.4944 52.9532 56.6588 53.2625L57.5228 54.8851L46.3988 60.7998L45.5361 59.1758C45.3717 58.8666 45.2697 58.528 45.2362 58.1794C45.2026 57.8308 45.238 57.479 45.3404 57.1441C45.4428 56.8092 45.6102 56.4977 45.8329 56.2275C46.0557 55.9572 46.3295 55.7335 46.6388 55.5691ZM47.7454 64.1451L51.4161 73.3891L53.8614 72.0891L50.9748 66.4691L53.3481 65.2505L56.2174 70.8371L65.1534 66.0851L59.5428 57.8718L47.7454 64.1451Z" fill="white"/>
<path d="M39.8135 64.9743C39.9481 64.8623 40.1034 64.7778 40.2706 64.7258C40.4378 64.6737 40.6136 64.6551 40.788 64.671C40.9624 64.687 41.1319 64.7371 41.2869 64.8185C41.442 64.8999 41.5794 65.0111 41.6915 65.1457C41.8036 65.2802 41.888 65.4355 41.9401 65.6027C41.9921 65.7699 42.0107 65.9458 41.9948 66.1201C41.9789 66.2945 41.9288 66.4641 41.8473 66.6191C41.7659 66.7741 41.6547 66.9116 41.5202 67.0237L41.5188 67.025L41.5162 67.0277L41.5122 67.0303L41.4988 67.041L41.4588 67.0743L41.3215 67.1797C41.2051 67.2685 41.0419 67.3841 40.8322 67.5263C40.4122 67.8063 39.8055 68.1717 39.0402 68.537C37.0506 69.4915 34.8735 69.9911 32.6668 69.9997C32.3132 69.9997 31.9741 69.8592 31.724 69.6091C31.474 69.3591 31.3335 69.0199 31.3335 68.6663C31.3335 68.3127 31.474 67.9736 31.724 67.7235C31.9741 67.4735 32.3132 67.333 32.6668 67.333C34.4768 67.3243 36.2622 66.9131 37.8935 66.129C38.3983 65.8891 38.8857 65.6142 39.3522 65.3063C39.5056 65.2049 39.6554 65.0981 39.8015 64.9863L39.8148 64.973L39.8135 64.9743ZM44.0735 73.7757C44.3677 73.5794 44.5719 73.2743 44.6412 72.9275C44.7104 72.5807 44.6391 72.2205 44.4428 71.9263C44.2466 71.6321 43.9415 71.4279 43.5947 71.3586C43.2478 71.2894 42.8877 71.3607 42.5935 71.557L42.5908 71.5597L42.5642 71.5757L42.4495 71.649C42.3437 71.7157 42.1886 71.8077 41.9842 71.925C41.4346 72.2388 40.8694 72.5245 40.2908 72.781C38.8668 73.4143 37.0655 73.9997 35.3335 73.9997C34.9799 73.9997 34.6407 74.1401 34.3907 74.3902C34.1406 74.6402 34.0002 74.9794 34.0002 75.333C34.0002 75.6866 34.1406 76.0258 34.3907 76.2758C34.6407 76.5258 34.9799 76.6663 35.3335 76.6663C37.6028 76.6663 39.8002 75.9183 41.3748 75.2183C42.2306 74.8382 43.0604 74.4021 43.8588 73.913L44.0108 73.817L44.0535 73.789L44.0668 73.781L44.0735 73.7757Z" fill="white"/>
</svg>
