<svg width="100" height="100" viewBox="0 0 100 100" fill="none" xmlns="http://www.w3.org/2000/svg">
<rect width="100" height="100" fill="#003E3E"/>
<path d="M23.3335 76.6665V71.3332C23.3335 71.3332 36.6668 65.9998 50.0002 65.9998C63.3335 65.9998 76.6668 71.3332 76.6668 71.3332V76.6665H23.3335ZM48.1335 42.2665C44.9335 31.8665 28.6668 34.2665 28.6668 34.2665C28.6668 34.2665 29.2002 55.0665 44.4002 51.8665C43.3335 44.1332 39.3335 41.9998 39.3335 41.9998C46.8002 41.9998 47.3335 51.0665 47.3335 51.0665V63.3332H52.6668V52.1332C52.6668 52.1332 52.6668 41.7332 60.6668 39.0665C60.6668 39.0665 55.3335 47.0665 55.3335 52.3998C74.0002 54.2665 74.0002 28.6665 74.0002 28.6665C74.0002 28.6665 50.2668 25.9998 48.1335 42.2665Z" fill="white"/>
</svg>
