<svg width="100" height="100" viewBox="0 0 100 100" fill="none" xmlns="http://www.w3.org/2000/svg">
<rect width="100" height="100" fill="#003E3E"/>
<path d="M39.3333 50.0002C46.6973 50.0002 52.6667 44.0308 52.6667 36.6668C52.6667 29.3028 46.6973 23.3335 39.3333 23.3335C31.9693 23.3335 26 29.3028 26 36.6668C26 44.0308 31.9693 50.0002 39.3333 50.0002Z" fill="white" stroke="white" stroke-width="2" stroke-linejoin="round"/>
<path d="M52.6667 38.2695C52.6854 38.2882 58.9636 46.1833 71.5014 61.9549C71.7137 62.2105 71.823 62.5362 71.8077 62.8682C71.7924 63.2002 71.6537 63.5145 71.4187 63.7495L65.9734 69.1949C65.7383 69.4298 65.424 69.5686 65.092 69.5838C64.7601 69.5991 64.4343 69.4899 64.1787 69.2775L41.7627 50.0002M53.2934 50.6269L57.0654 54.3989" stroke="white" stroke-width="2" stroke-linecap="round" stroke-linejoin="round"/>
<path d="M40.6665 76.7814C43.2229 73.4507 46.3296 71.7854 49.9865 71.7854C55.4745 71.7854 61.9505 78.6787 67.4745 77.7307C72.9998 76.7814 74.5812 71.3334 71.1812 68.3174" stroke="white" stroke-width="2" stroke-linecap="round" stroke-linejoin="round"/>
</svg>
