<svg width="100" height="100" viewBox="0 0 100 100" fill="none" xmlns="http://www.w3.org/2000/svg">
<rect width="100" height="100" fill="#003E3E"/>
<path d="M48.1758 20.625L46.2733 24.9688C45.2884 25.0288 44.3086 25.1528 43.3399 25.34L40.4296 21.582L37.2929 22.6485L37.2773 27.4298C35.9485 28.1128 34.6751 28.9385 33.4722 29.9023L29.0391 27.9062L26.7695 30.3204L29.039 34.625C28.3149 35.6572 27.6786 36.7483 27.1368 37.8867L22.2695 38.0195L21.2812 41.1795L25.211 44.0742C25.0229 45.2467 24.931 46.4315 24.9257 47.6173L20.5625 49.8281L21.0195 53.1094L25.8086 54.0469C26.0951 55.0492 26.4501 56.0307 26.8711 56.9844L23.715 60.9025L25.4766 63.707L30.3829 62.5586C30.6933 62.924 31.0151 63.2795 31.3476 63.6249C32.0421 64.3434 32.782 65.0167 33.5626 65.6405L32.6095 70.5546L35.4767 72.2109L39.2227 68.9491C40.2946 69.38 41.3982 69.7273 42.5236 69.9881L43.7464 74.7889L47.047 75.0585L49.0314 70.531C50.4026 70.4485 51.7694 70.2435 53.1134 69.9137L56.2659 73.5662L59.34 72.3358L59.25 70.4841L52.0742 65.0429C49.9852 65.571 47.819 65.7124 45.6914 65.4724C41.7221 65.0249 37.9076 63.2324 34.9141 60.1366C28.0719 53.0599 28.2675 41.8029 35.3439 34.9609C38.7714 31.6467 43.1801 29.9655 47.5939 29.9179C52.2926 29.8671 56.9956 31.6674 60.5236 35.3162C66.2655 41.2552 67.0481 50.1894 62.9689 56.9531L66.9651 59.9844C67.4621 59.2053 67.9108 58.3965 68.3089 57.5625L73.1408 57.4296L74.129 54.2696L70.2269 51.3946C70.4152 50.2125 70.5105 49.0174 70.5119 47.8204L74.8479 45.6173L74.391 42.336L69.606 41.3985C69.2033 40.0124 68.6697 38.6678 68.0122 37.3829L70.8635 33.4336L68.9572 30.7265L64.2622 32.0898C64.2033 32.0273 64.146 31.9639 64.0863 31.9023C63.3472 31.1377 62.5563 30.425 61.7191 29.7692L62.6176 25.1286L59.75 23.4725L56.1875 26.5743C55.0342 26.1101 53.8498 25.7489 52.6484 25.4805L51.4805 20.8945L48.1758 20.625ZM40.9062 39.8125C39.6133 39.8272 38.3316 40.1448 37.1562 40.7225L42.8088 45.0117C44.5182 46.3088 45.0031 48.7736 43.6912 50.5039C42.379 52.2351 39.8592 52.4954 38.125 51.1799L32.4765 46.8946C31.8981 49.9937 32.9934 53.2775 35.6758 55.3126C38.0814 57.1373 41.1688 57.4789 43.8283 56.5236L44.4258 56.3086L44.9295 56.6915L61.8283 69.512L62.332 69.8947L62.289 70.5276C62.0844 73.3464 63.2378 76.2289 65.6445 78.0547C68.327 80.0897 71.7876 80.2585 74.617 78.8672L68.9688 74.5822C67.2345 73.2665 66.8085 70.769 68.1213 69.0392C69.4338 67.3092 71.9384 67.1136 73.6484 68.4103L79.2969 72.6956C79.8739 69.5976 78.7831 66.3123 76.1015 64.2776C73.6874 62.4454 70.6244 62.0824 67.9805 63.0235L67.3867 63.2345L66.883 62.8516L49.9842 50.0314L49.4805 49.6485L49.5235 49.0198C49.7173 46.2214 48.5423 43.3705 46.1289 41.5391C44.5609 40.3496 42.7261 39.7919 40.9064 39.8126L40.9062 39.8125ZM46.3516 51.0938L66.836 66.6367L65.4258 68.5L44.9375 52.9531L46.3516 51.0938Z" fill="white"/>
</svg>
