<svg width="100" height="100" viewBox="0 0 100 100" fill="none" xmlns="http://www.w3.org/2000/svg">
<rect width="100" height="100" fill="#003E3E"/>
<path d="M62.6963 45.9925C64.0104 45.9961 65.3121 45.739 66.5261 45.2361C67.7401 44.7332 68.8423 43.9944 69.7688 43.0625L79.3938 33.4438C80.155 32.6825 80.225 31.4438 79.5 30.645C79.318 30.4444 79.0972 30.2827 78.8508 30.17C78.6045 30.0573 78.3378 29.9958 78.0669 29.9892C77.7961 29.9827 77.5267 30.0312 77.2752 30.1319C77.0237 30.2326 76.7953 30.3834 76.6038 30.575L68.025 39.1475C67.737 39.4352 67.3465 39.5968 66.9394 39.5968C66.5323 39.5968 66.1418 39.4352 65.8538 39.1475C65.255 38.55 65.2875 37.54 65.885 36.9425L74.4263 28.4013C74.6177 28.2098 74.7683 27.9815 74.8689 27.7301C74.9695 27.4787 75.018 27.2095 75.0114 26.9388C75.0049 26.6681 74.9434 26.4016 74.8308 26.1553C74.7182 25.9091 74.5568 25.6883 74.3563 25.5063C73.9943 25.178 73.5224 24.9973 73.0338 25C72.7596 25.0002 72.488 25.0543 72.2347 25.1594C71.9814 25.2645 71.7513 25.4185 71.5575 25.6125L63.0238 34.145C62.7357 34.4327 62.3453 34.5943 61.9382 34.5943C61.5311 34.5943 61.1406 34.4327 60.8525 34.145C60.255 33.5475 60.2863 32.5375 60.8838 31.94L69.425 23.4013C69.6165 23.2098 69.7671 22.9815 69.8677 22.7301C69.9682 22.4787 70.0167 22.2095 70.0102 21.9388C70.0036 21.6681 69.9422 21.4016 69.8296 21.1553C69.717 20.9091 69.5555 20.6883 69.355 20.5063C68.9931 20.178 68.5212 19.9973 68.0325 20C67.4788 20.0007 66.9479 20.221 66.5563 20.6125L56.9375 30.2313C56.0057 31.158 55.2669 32.2604 54.7639 33.4746C54.261 34.6889 54.0039 35.9908 54.0075 37.305V38.3338C54.0077 38.5968 53.9561 38.8573 53.8555 39.1003C53.7549 39.3433 53.6073 39.5641 53.4213 39.75L48.97 44.2025C48.9236 44.249 48.8685 44.2859 48.8078 44.3111C48.7471 44.3362 48.682 44.3492 48.6163 44.3492C48.5506 44.3492 48.4855 44.3362 48.4248 44.3111C48.3641 44.2859 48.309 44.249 48.2625 44.2025L26.6025 22.5413C26.2287 22.167 25.7218 21.9561 25.1928 21.9547C24.6639 21.9533 24.1559 22.1615 23.78 22.5338C21.8863 24.41 20.875 27.0588 20.875 30.1925C20.8625 35.3675 23.5825 41.3175 27.9738 45.7025L38.655 56.3838C40.1732 57.8987 42.2303 58.7497 44.375 58.75C45.0588 58.7503 45.7398 58.6629 46.4013 58.49C46.5674 58.4465 46.7383 58.4242 46.91 58.4238C47.4121 58.4239 47.8957 58.6136 48.2638 58.955L49.6875 60.27C50.0547 60.6452 50.261 61.1488 50.2625 61.6738V62.3663C50.2589 63.9405 50.8776 65.4524 51.9838 66.5725L63.24 78.0188L63.2513 78.0313C64.5006 79.2804 66.195 79.9822 67.9617 79.982C69.7284 79.9819 71.4227 79.28 72.6719 78.0307C73.9211 76.7813 74.6228 75.0869 74.6227 73.3202C74.6226 71.5535 73.9206 69.8592 72.6713 68.61L55.7988 51.7375C55.7523 51.6911 55.7154 51.636 55.6903 51.5753C55.6651 51.5146 55.6521 51.4495 55.6521 51.3838C55.6521 51.3181 55.6651 51.253 55.6903 51.1923C55.7154 51.1316 55.7523 51.0765 55.7988 51.03L60.25 46.5788C60.4358 46.3929 60.6564 46.2454 60.8992 46.1448C61.142 46.0442 61.4022 45.9925 61.665 45.9925H62.6963Z" fill="white"/>
<path d="M44.375 62.7501C41.173 62.7435 38.1026 61.4747 35.83 59.2189L34.0975 57.4864C33.9101 57.2994 33.6561 57.1943 33.3913 57.1943C33.1265 57.1943 32.8725 57.2994 32.685 57.4864L22.06 68.0564C20.1663 69.9501 19.49 72.7376 20.4275 75.4676C20.4801 75.6214 20.5423 75.7717 20.6138 75.9176C21.875 78.5001 24.3225 80.0001 27 80.0001C27.9208 80.0024 28.8329 79.8219 29.6835 79.4692C30.534 79.1164 31.3061 78.5984 31.955 77.9451L46.125 63.7076C46.1847 63.6468 46.2303 63.5736 46.2588 63.4933C46.2873 63.413 46.298 63.3275 46.29 63.2426V63.2101C46.2845 63.1322 46.2632 63.0562 46.2275 62.9867C46.1917 62.9172 46.1423 62.8556 46.0822 62.8058C46.022 62.7559 45.9524 62.7187 45.8775 62.6965C45.8025 62.6742 45.7239 62.6674 45.6463 62.6764C45.2241 62.7232 44.7998 62.7478 44.375 62.7501Z" fill="white"/>
</svg>
